<svg xmlns="http://www.w3.org/2000/svg" width="20.001" height="18" viewBox="0 0 20.001 18">
  <g id="bx-cart" transform="translate(-2 -3)">
    <path id="Path_104" data-name="Path 104" d="M21.822,7.431A1,1,0,0,0,21,7H7.333L6.179,4.23A1.994,1.994,0,0,0,4.333,3H2V5H4.333L9.077,16.385A1,1,0,0,0,10,17h8a1,1,0,0,0,.937-.648l3-8a1,1,0,0,0-.115-.921ZM17.307,15h-6.64l-2.5-6h11.39Z" fill="#fff"/>
    <circle id="Ellipse_22" data-name="Ellipse 22" cx="1.5" cy="1.5" r="1.5" transform="translate(9 18)" fill="#fff"/>
    <circle id="Ellipse_23" data-name="Ellipse 23" cx="1.5" cy="1.5" r="1.5" transform="translate(16 18)" fill="#fff"/>
  </g>
</svg>
