<svg xmlns="http://www.w3.org/2000/svg" width="17.499" height="17.5" viewBox="0 0 17.499 17.5">
  <path id="cart-24-regular" d="M2.5,4.25a.75.75,0,0,1,.75-.75h.558A2.1,2.1,0,0,1,5.653,4.733,6.564,6.564,0,0,1,6.15,6q.05,0,.1,0h12.5a1.25,1.25,0,0,1,1.2,1.593L18.122,14a2.75,2.75,0,0,1-2.644,2H9.53a2.75,2.75,0,0,1-2.652-2.022L6.118,11.2,4.858,6.956V6.948a7.257,7.257,0,0,0-.52-1.494C4.128,5.069,3.96,5,3.809,5H3.25A.75.75,0,0,1,2.5,4.25Zm5.073,6.59.751,2.739A1.252,1.252,0,0,0,9.53,14.5h5.948a1.25,1.25,0,0,0,1.2-.907L18.417,7.5H6.585l.974,3.287ZM11,19a2,2,0,1,1-2-2A2,2,0,0,1,11,19ZM9.5,19a.5.5,0,1,0-.5.5A.5.5,0,0,0,9.5,19ZM18,19a2,2,0,1,1-2-2A2,2,0,0,1,18,19Zm-1.5,0a.5.5,0,1,0-.5.5A.5.5,0,0,0,16.5,19Z" transform="translate(-2.5 -3.5)" fill="#fff"/>
</svg>
